<svg xmlns="http://www.w3.org/2000/svg" viewBox="0 0 32 32">
<svg xmlns="http://www.w3.org/2000/svg" xmlns:xlink="http://www.w3.org/1999/xlink" aria-hidden="true" role="img" class="iconify iconify--emojione" width="32" height="32" preserveAspectRatio="xMidYMid meet" viewBox="0 0 64 64"><g fill="#819096"><path d="M2 34.2h3.6v5.9H2z"></path><path d="M58.3 18.4h3.6v5.9h-3.6z"></path><path d="M59.7 21.7L27.3 10.4c-1.4-.5-3.2-.1-4 .9l-8.9 11.6L2.7 38.2c-1.2 1.5-.8 3.4.9 4.2l39.3 17.3c2 .9 4.3 0 5.1-1.9L55.8 39l5.9-14c.5-1.2-.4-2.7-2-3.3"></path></g><path d="M61.7 19.1c.5-1.2-.4-2.7-2-3.3L27.3 4.5c-1.4-.5-3.2-.1-4 .9L14.4 17l41.4 16.1l5.9-14" fill="#ed4c5c"></path><path d="M14.4 17L2.7 32.3c-1.2 1.5-.8 3.4.9 4.2l39.3 17.3c2 .9 4.3 0 5.1-1.9l7.9-18.8L14.4 17" fill="#cad5dd"></path><path d="M4.2 30.3c-1.2 1.5.3 3.8 1.5 4.9c4.7 4.3 23 12.3 23 12.3L4.2 30.3" opacity=".5" fill="#333"></path><path d="M14.4 17s-3.8 5.3-7 6.8c-2.4 1.1-3.8 0-4.4 1.8C0 36.2 42.6 54 42.6 54c2 .9 4.3 0 5.1-1.9L55.8 33L14.4 17" fill="#d9e3e8"></path><path d="M61.8 18.2c.3-1 .5-1.8-1.8-2.5L27.3 4.5c-2.1-.8-2.8-.6-4 .9l-2.7 3.2l39.6 14.1l1.6-4.5" fill="#c7d3d8"></path><path fill="#93a2aa" d="M60.2 22.7v5.9l1.6-4l.2-7.3z"></path><g fill="#69787c"><ellipse cx="33.5" cy="9.8" rx="1.6" ry="1.3"></ellipse><ellipse cx="48.3" cy="15.1" rx="1.6" ry="1.3"></ellipse></g><path d="M35 9.5L47.4 14s.5.3.2 2.4c-.5-.1-.9-.8-.9-.8L34.2 11c.1-.1-.1-.4.8-1.5" fill="#e8edef"></path><path d="M34.7 9.9l12.4 4.5s.3.4.3 1.8c-.4-.3-.6-.7-.6-.7l-12.5-4.6s-.2-.2.4-1" fill="#93a2aa"></path><path fill="#69787c" d="M20.6 8.9v-.3l39.6 14.1v6.2H60l.1-5.9z"></path><g fill="#fff"><path d="M28.3 17.9l-.1.1c-.3.5-.4.9-.4 1.1c0 .2.1.4.5.6c.3.1.6.1.8-.1c.1-.1.3-.3.5-.7l2.6-4.7l1.5.5l-2.7 4.9c-.3.6-.7 1-1.1 1.2c-.7.4-1.4.5-2.3.1c-.9-.3-1.3-.8-1.3-1.4c0-.6.1-1.2.6-2l.1-.2l1.3.6"></path><path d="M35.2 15.4l1.6.6l-2.4 4.2c-.3.5-.4.8-.4 1.1c0 .5.3.8.9 1.1c.6.2 1.1.2 1.6-.1c.2-.2.5-.5.8-1l2.4-4.3l1.7.6l-2.5 4.4c-.4.7-.9 1.3-1.4 1.6c-.9.6-2 .6-3.3.1c-1.3-.5-1.9-1.2-1.9-2.1c0-.5.2-1.1.6-1.8l2.3-4.4"></path><path d="M42.9 18.1l1.7.6l-3.3 5.9l4.1 1.6l-.8 1.3l-5.7-2.3l4-7.1"></path></g><g fill="#333"><path d="M19 27.7l1.1-1.9c1 .3 1.7.5 2.1.6c.7.1 1.3.1 1.9-.2c.4-.1.8-.4 1.2-.8l.5-.5l2.5 1L20 40.2L16.9 39l5.8-9.8l-3.7-1.5"></path><path d="M42.3 34.5c-.7.2-1.8.7-3.2 1.4c-1.4.7-2.7 1.5-4 2.5c-1 .7-2 1.6-3.1 2.8c-1.1 1.1-1.9 2.1-2.4 2.9l-3.1-1.3c1.6-2.5 4-4.8 7.4-6.8c2.1-1.3 3.7-2.1 4.9-2.4l-7.7-3.1l1.5-2.5l10.9 4.3l-1.2 2.2"></path></g></svg>
</svg>
